<svg version="1.1" id="Layer_1" xmlns="http://www.w3.org/2000/svg" xmlns:xlink="http://www.w3.org/1999/xlink" x="0px" y="0px"
	 width="100%" viewBox="0 0 207 124" enable-background="new 0 0 207 124" xml:space="preserve">
<path fill="#FFFFFF" opacity="1.000000" stroke="none" 
	d="
M116.000000,125.000000 
	C78.500008,125.000000 41.499866,124.955360 4.500326,125.084114 
	C1.516770,125.094490 0.906382,124.483376 0.916050,121.499763 
	C1.042426,82.500183 1.042409,43.499924 0.916075,4.500342 
	C0.906411,1.517036 1.517385,0.912769 4.500061,0.917580 
	C71.166534,1.025099 137.833267,1.025080 204.499725,0.917627 
	C207.481827,0.912820 208.093658,1.516247 208.083984,4.500138 
	C207.957565,43.499718 207.957611,82.499977 208.083908,121.499557 
	C208.093567,124.482590 207.484726,125.099396 204.499756,125.085052 
	C175.167053,124.944122 145.833389,125.000000 116.000000,125.000000 
z"/>
<path fill="#505050" opacity="1.000000" stroke="none" 
	d="
M25.403851,7.533306 
	C27.183132,5.997442 28.276423,5.911708 29.482796,7.971238 
	C35.266731,17.845608 41.196438,27.634966 47.126999,37.422630 
	C47.922615,38.735699 48.326630,39.771328 46.705193,40.681797 
	C45.508766,41.353611 44.633984,41.329399 43.856663,39.954273 
	C37.761406,29.171432 30.596844,19.009684 25.403851,7.533306 
z"/>
<path fill="#505050" opacity="1.000000" stroke="none" 
	d="
M120.473251,82.508812 
	C129.700089,79.150291 138.589981,76.003265 147.446121,72.763954 
	C149.274887,72.095055 151.044418,71.215530 151.842346,73.856552 
	C152.568909,76.261383 150.497833,76.463211 148.999115,77.015022 
	C139.216293,80.616943 129.455521,84.282066 119.620659,87.736107 
	C117.934204,88.328407 115.367798,90.640472 114.247971,87.182594 
	C113.185593,83.902092 116.638222,84.327065 118.234909,83.286385 
	C118.768250,82.938774 119.489166,82.878975 120.473251,82.508812 
z"/>
<path fill="#505050" opacity="1.000000" stroke="none" 
	d="
M62.987488,56.324249 
	C72.597633,63.386696 81.915863,70.300613 91.152504,77.321877 
	C92.200165,78.118263 94.628586,78.627548 92.872963,80.980370 
	C91.226044,83.187492 90.001915,81.505402 88.767532,80.586060 
	C79.994484,74.052124 71.279709,67.439468 62.472347,60.952389 
	C59.954399,59.097786 60.092346,57.684433 62.987488,56.324249 
z"/>
<path fill="#505050" opacity="1.000000" stroke="none" 
	d="
M206.150330,47.897400 
	C203.401291,51.666401 199.187546,53.013374 195.549286,55.214149 
	C188.867981,59.255676 182.057449,63.084080 175.286026,66.975647 
	C174.067734,67.675789 172.873276,68.958328 171.592331,66.818192 
	C170.308456,64.673187 171.944031,64.274483 173.202179,63.547764 
	C182.842514,57.979324 192.495514,52.432617 202.111237,46.822006 
	C203.731644,45.876530 205.098465,45.186687 206.150330,47.897400 
z"/>
</svg>