<?xml version="1.0" standalone="no"?>
<!DOCTYPE svg PUBLIC "-//W3C//DTD SVG 20010904//EN"
 "http://www.w3.org/TR/2001/REC-SVG-20010904/DTD/svg10.dtd">
<svg version="1.0" xmlns="http://www.w3.org/2000/svg"
 width="500.000000pt" height="500.000000pt" viewBox="0 0 500.000000 500.000000"
 preserveAspectRatio="xMidYMid meet">

<g transform="translate(0.000000,500.000000) scale(0.100000,-0.100000)"
fill="#000000" stroke="none">
<path d="M885 2709 c-9 -27 12 -50 25 -29 14 22 12 50 -4 50 -8 0 -18 -9 -21
-21z"/>
<path d="M1319 2631 c12 -8 12 -24 -3 -113 -26 -148 -16 -208 23 -148 9 13 11
21 5 17 -8 -4 -5 22 8 71 29 114 17 182 -32 182 -13 0 -13 -2 -1 -9z"/>
<path d="M1518 2631 c11 -7 8 -27 -18 -107 -39 -121 -45 -211 -16 -243 42 -46
104 -17 186 86 200 252 201 252 272 263 l53 8 -45 1 c-65 2 -102 -28 -207
-166 -112 -147 -174 -205 -211 -201 -48 5 -50 40 -9 173 42 134 46 170 18 185
-23 12 -42 13 -23 1z"/>
<path d="M866 2608 c-8 -14 -18 -81 -25 -172 l-12 -150 -50 -54 c-64 -70 -94
-123 -113 -197 -20 -75 -20 -114 0 -165 28 -69 86 -64 124 11 27 52 56 171 70
284 6 50 13 99 15 111 3 12 33 40 72 66 38 25 94 68 125 97 56 51 58 52 53 24
-30 -169 -31 -203 -6 -203 16 0 26 21 57 112 47 142 68 189 100 228 16 19 20
28 10 24 -23 -9 -54 -64 -93 -163 -26 -65 -32 -76 -28 -46 19 136 19 137 -1
133 -10 -2 -25 -15 -32 -30 -19 -41 -236 -217 -250 -204 -2 3 3 70 12 151 10
80 14 150 11 155 -10 16 -24 12 -39 -12z m-57 -490 c-28 -215 -51 -288 -88
-288 -69 0 -72 184 -5 297 28 48 91 123 104 123 4 0 -1 -60 -11 -132z"/>
<path d="M1467 2602 c-28 -29 -117 -179 -117 -197 0 -5 23 30 50 80 28 49 63
102 77 117 15 16 24 28 22 28 -3 0 -17 -12 -32 -28z"/>
<path d="M2030 2616 c0 -2 7 -7 16 -10 8 -3 12 -2 9 4 -6 10 -25 14 -25 6z"/>
<path d="M2090 2586 c0 -7 160 -102 204 -120 76 -32 59 -15 -29 28 -49 25
-109 56 -132 71 -24 14 -43 24 -43 21z"/>
<path d="M3670 2577 c-3 -3 -39 -8 -80 -11 -41 -4 -102 -11 -135 -16 -33 -5
-116 -16 -185 -26 -69 -10 -119 -19 -111 -22 7 -2 45 0 85 6 39 6 112 16 161
22 50 7 117 15 150 20 33 4 148 8 255 9 205 2 291 -8 402 -47 32 -11 60 -16
63 -12 8 13 -25 28 -113 52 -62 17 -116 22 -282 25 -113 3 -207 3 -210 0z"/>
<path d="M3093 2493 c9 -2 25 -2 35 0 9 3 1 5 -18 5 -19 0 -27 -2 -17 -5z"/>
<path d="M3033 2483 c9 -2 23 -2 30 0 6 3 -1 5 -18 5 -16 0 -22 -2 -12 -5z"/>
<path d="M2963 2473 c9 -2 25 -2 35 0 9 3 1 5 -18 5 -19 0 -27 -2 -17 -5z"/>
<path d="M2893 2463 c9 -2 23 -2 30 0 6 3 -1 5 -18 5 -16 0 -22 -2 -12 -5z"/>
<path d="M2823 2453 c9 -2 23 -2 30 0 6 3 -1 5 -18 5 -16 0 -22 -2 -12 -5z"/>
<path d="M2375 2439 c12 -8 64 -14 135 -15 l115 -2 -105 7 c-58 5 -118 11
-135 15 -27 7 -28 6 -10 -5z"/>
<path d="M2733 2443 c9 -2 25 -2 35 0 9 3 1 5 -18 5 -19 0 -27 -2 -17 -5z"/>
<path d="M2653 2433 c9 -2 25 -2 35 0 9 3 1 5 -18 5 -19 0 -27 -2 -17 -5z"/>
<path d="M1892 2165 c-1 -34 -7 -66 -14 -73 -9 -9 -9 -12 0 -12 19 0 23 21 19
86 l-3 59 -2 -60z"/>
<path d="M2002 2166 c-23 -62 -28 -82 -11 -53 13 22 55 22 68 0 5 -10 12 -16
14 -13 3 3 -7 32 -22 64 l-27 60 -22 -58z m38 -13 c0 -7 -7 -13 -15 -13 -16 0
-19 9 -9 35 5 13 8 14 15 3 5 -7 9 -19 9 -25z"/>
<path d="M2151 2158 c1 -35 4 -51 6 -35 5 34 25 35 43 2 7 -14 18 -25 23 -25
5 0 3 10 -5 23 -12 17 -13 26 -4 40 15 24 -3 51 -38 55 -26 3 -26 3 -25 -60z
m54 27 c0 -13 -8 -21 -22 -23 -19 -3 -23 1 -23 23 0 22 4 26 23 23 14 -2 22
-10 22 -23z"/>
<path d="M2300 2160 l0 -60 43 2 c36 1 38 2 10 5 -27 4 -33 9 -33 28 0 18 6
25 28 28 l27 4 -27 2 c-21 1 -28 6 -28 20 0 15 8 21 33 24 28 3 26 4 -10 5
l-43 2 0 -60z"/>
<path d="M2460 2160 c0 -56 2 -60 23 -60 36 0 67 27 67 59 0 34 -28 61 -63 61
-26 0 -27 -2 -27 -60z m64 34 c22 -22 20 -50 -6 -68 -38 -27 -48 -20 -48 34 0
43 3 50 19 50 11 0 27 -7 35 -16z"/>
<path d="M2938 2161 c-15 -34 -22 -61 -17 -61 5 0 9 7 9 15 0 22 56 20 69 -2
19 -33 11 4 -12 57 l-23 52 -26 -61z m42 -8 c0 -7 -7 -13 -15 -13 -16 0 -19 9
-9 35 5 13 8 14 15 3 5 -7 9 -19 9 -25z"/>
<path d="M3092 2213 c13 -3 18 -18 21 -61 l3 -57 2 57 c2 44 6 58 20 61 9 3
-1 5 -23 5 -22 0 -32 -2 -23 -5z"/>
<path d="M3232 2213 c13 -3 18 -18 21 -61 l3 -57 2 57 c2 44 6 58 20 61 9 3
-1 5 -23 5 -22 0 -32 -2 -23 -5z"/>
<path d="M3373 2160 c-1 -43 2 -55 6 -35 5 25 11 30 36 30 25 0 31 -5 36 -30
4 -20 7 -8 6 35 0 36 -2 53 -4 38 -4 -24 -9 -28 -38 -28 -29 0 -34 4 -38 28
-2 15 -4 -2 -4 -38z"/>
<path d="M3540 2160 l0 -60 43 2 c36 1 38 2 10 5 -27 4 -33 9 -33 28 0 18 6
25 28 28 l27 4 -27 2 c-21 1 -28 6 -28 20 0 15 8 21 33 24 28 3 26 4 -10 5
l-43 2 0 -60z"/>
<path d="M3695 2199 c15 -46 44 -104 44 -88 1 8 7 24 15 35 14 18 15 18 26
-10 6 -16 12 -27 14 -25 12 12 43 109 35 109 -5 0 -9 -6 -9 -12 -1 -7 -7 -26
-14 -43 l-13 -30 -22 45 c-11 25 -19 37 -16 27 6 -22 -12 -70 -24 -62 -5 3
-12 19 -16 35 -4 16 -11 33 -17 36 -7 4 -8 -2 -3 -17z"/>
<path d="M3917 2213 c-15 -15 -5 -44 18 -55 36 -16 28 -44 -10 -41 -22 2 -26
0 -15 -7 24 -15 48 -12 60 10 11 20 7 25 -34 54 -23 16 -12 40 15 33 11 -3 19
-1 19 4 0 10 -43 12 -53 2z"/>
<path d="M2720 2155 c0 -30 5 -55 10 -55 6 0 10 17 10 38 l1 37 20 -28 21 -27
21 27 22 28 6 -40 c6 -36 6 -34 8 20 0 32 -3 55 -7 50 -5 -6 -18 -23 -30 -38
l-21 -28 -23 35 c-13 20 -26 36 -30 36 -5 0 -8 -25 -8 -55z"/>
</g>
</svg>
